# xmcd CD database file
#
# Track frame offsets:
#	150
#	9174
#	19123
#	37984
#	50493
#	62512
#	66926
#	84251
#	94441
#	103599
#	122708
#	148655
#	166957
#	179207
#	193915
#	207574
#	219367
#	228652
#	247433
#
# Disc length: 3544 seconds
#
# Revision: 3
# Processed by: cddbd v1.5.1PL0 Copyright (c) Steve Scherf et al.
# Submitted via: CDex 1.51
#
DISCID=1b0dd613
DTITLE=Bob Buckingham and Friends - My Friend is a Mule in the Mines
DYEAR=1999
DGENRE=Folk
TTITLE0=Old Molly Hare
TTITLE1=Sandy River Belle
TTITLE2=Going Down South
TTITLE3=Ramblin' Gambler
TTITLE4=Forked Deer
TTITLE5=My Friend is a Mule in the Mines
TTITLE6=Long Steel Rail Blues
TTITLE7=Unicorn
TTITLE8=Ground Hog
TTITLE9=Soldier's Joy
TTITLE10=Lying Blues
TTITLE11=Dark Holler Blues
TTITLE12=Liberty
TTITLE13=Satan Your Kingdom Must Come Down
TTITLE14=Mole in the Ground
TTITLE15=The Yellow Rose of Texas
TTITLE16=Sourwood Mountain
TTITLE17=Sally Ann
TTITLE18=Improv/Deal
EXTD=YEAR: 1999
EXTT0=
EXTT1=
EXTT2=
EXTT3=
EXTT4=
EXTT5=
EXTT6=
EXTT7=
EXTT8=
EXTT9=
EXTT10=
EXTT11=
EXTT12=
EXTT13=
EXTT14=
EXTT15=
EXTT16=
EXTT17=
EXTT18=
PLAYORDER=
